<svg id="Layer_1" data-name="Layer 1" xmlns="http://www.w3.org/2000/svg" viewBox="0 0 548 548"><defs><style>.cls-1{fill:#de354c;}</style></defs><title>altered_pixels_logo</title><rect class="cls-1" x="185.4" y="135" width="77.07" height="89.09"/><rect class="cls-1" x="185.69" y="255.35" width="76.49" height="88.65"/><path class="cls-1" d="M447.93,159.24c-51.36,0-93.93,37.2-101.7,85.85H469.29v31.27H346.11c7.44,49,50.19,86.61,101.82,86.61,56.87,0,103-45.61,103-101.86S504.8,159.24,447.93,159.24Z" transform="translate(-21 -21)"/><rect class="cls-1" x="285.43" y="135" width="77.07" height="89.09"/><rect class="cls-1" x="286.6" y="255.35" width="76.49" height="157.65"/><path class="cls-1" d="M120.61,276.36V245.09H243.67c-7.77-48.65-50.34-85.85-101.7-85.85-56.87,0-103,45.61-103,101.87S85.1,363,142,363c51.63,0,94.38-37.59,101.82-86.61Z" transform="translate(-21 -21)"/><path class="cls-1" d="M21,21V569H569V21ZM549,551H41V39H549Z" transform="translate(-21 -21)"/></svg>