<svg id="Layer_1" data-name="Layer 1" xmlns="http://www.w3.org/2000/svg" viewBox="0 0 2500 400"><defs><style>.cls-1{fill:#4ea146;}.cls-2{fill:#1289ca;}</style></defs><title>Artboard 1</title><path class="cls-1" d="M2352.48,108.37h118.07c4.64,0,8.44-4.18,8.44-9.3V48.36c0-5.11-3.8-9.3-8.44-9.3H2347c-39.64,0-66.63,27.44-66.63,69.31v56.75c0,41.4,28.26,73.5,66.21,73.5h68.32c3.79,0,6.74,3.72,6.74,8.37v42.34c0,3.25-3.37,6-6.74,6H2293c-4.64,0-8.43,4.19-8.43,9.31v50.7c0,5.12,3.79,9.3,8.43,9.3h124.83c40.91,0,69.16-31.63,69.16-73V240c0-40.93-25.3-74.89-69.16-74.89h-65.36c-4.22,0-6.75-2.32-6.75-7.44v-42.8C2345.73,109.77,2347.83,108.37,2352.48,108.37Z"/><path class="cls-2" d="M2118.86,364.68H2172c4.64,0,8.43-4.18,8.43-9.3v-247h70.43c4.64,0,8.43-4.18,8.43-9.3V48.36c0-5.11-3.79-9.3-8.43-9.3H2040c-4.64,0-8.43,4.19-8.43,9.3V99.07c0,5.12,3.79,9.3,8.43,9.3h70.43v247C2110.43,360.5,2114.22,364.68,2118.86,364.68Z"/><path class="cls-1" d="M1378,39.06h-52.71c-4.64,0-8.44,4.19-8.44,9.3v307c0,5.12,3.8,9.3,8.44,9.3H1378c4.64,0,8.44-4.18,8.44-9.3V200c0-12.56,2.1-20.93,13.07-29.77l76.32-59.54c2.12-1.4,3.38-2.33,4.65-2.33,1.68,0,3,1.86,3,5.12V355.38c0,5.12,3.79,9.3,8.43,9.3h52.71c4.64,0,8.44-4.18,8.44-9.3V200c0-12.56,3-21.86,13.07-29.77l76.76-59.54c2.1-1.4,3.37-2.33,4.63-2.33,1.69,0,2.54,1.86,2.54,5.12V355.38c0,5.12,3.79,9.3,8.43,9.3h52.71c4.64,0,8.44-4.18,8.44-9.3V74c0-19.54-14.34-34.89-31.63-34.89h-49.34c-10.55,0-14.34,1.86-23.2,8.37l-62.83,47.92L1553,74c.42-18.15-13.07-34.89-32-34.89H1472c-10.54,0-14.76,1.86-23.19,8.37l-62.41,47.92v-47C1386.39,43.25,1382.59,39.06,1378,39.06Z"/><path class="cls-2" d="M1940.49,364.68h53.14c4.64,0,8.43-4.18,8.43-9.3V112.09c0-41.86-34.16-73-73.8-73H1839.7c-36.69,0-73.8,26.05-73.8,73V355.38c0,5.12,3.8,9.3,8.44,9.3h53.13c4.64,0,8.44-4.18,8.44-9.3V236.29h96.15V355.38C1932.06,360.5,1935.85,364.68,1940.49,364.68ZM1835.91,167.45V119.54c0-5.59,3.37-11.17,9.7-11.17h75.91c7.17,0,10.54,4.19,10.54,11.17v47.91Z"/><path class="cls-1" d="M747.54,39.06H626.92c-33.73,0-60.72,28.84-60.72,64.66V305.61c0,37.67,17.29,59.07,60.72,59.07H747.54c4.63,0,8.43-4.18,8.43-9.3v-50.7c0-5.12-3.8-9.31-8.43-9.31H643.37c-6.32,0-8-4.65-8-9.3V236.29H747.54c4.63,0,8.43-4.18,8.43-9.3V176.75c0-5.11-3.8-9.3-8.43-9.3H635.36V115.82c0-4.66,3.79-7.45,8.44-7.45H747.54c4.63,0,8.43-4.18,8.43-9.3V48.36C756,43.25,752.17,39.06,747.54,39.06Z"/><path class="cls-1" d="M475.12,173.49c17.71-13,39.22-27.44,39.22-53.49V103.72c0-37.68-25.3-64.66-66.21-64.66H304.75c-4.64,0-8.43,4.19-8.43,9.3v307c0,5.12,3.79,9.3,8.43,9.3h52.72c4.64,0,8.43-4.18,8.43-9.3v-247h72.54c2.95,0,4.21,2.33,4.21,4.65v7a9.83,9.83,0,0,1-3.79,6.52L379.39,173c-3.79,3.26-5.48,5.58-5.48,11.16V227c0,5.12,3.8,9.3,8.44,9.3h68.31c3.8,0,8,4.19,8,9.31V355.38c0,5.12,3.79,9.3,8.43,9.3h52.72c4.63,0,8.43-4.18,8.43-9.3V241C528.26,202.8,503.8,179.08,475.12,173.49Z"/><path class="cls-2" d="M2352.48,108.37h118.07c4.64,0,8.44-4.18,8.44-9.3V48.36c0-5.11-3.8-9.3-8.44-9.3H2347c-39.64,0-66.63,27.44-66.63,69.31v56.75c0,41.4,28.26,73.5,66.21,73.5h68.32c3.79,0,6.74,3.72,6.74,8.37v42.34c0,3.25-3.37,6-6.74,6H2293c-4.64,0-8.43,4.19-8.43,9.31v50.7c0,5.12,3.79,9.3,8.43,9.3h124.83c40.91,0,69.16-31.63,69.16-73V240c0-40.93-25.3-74.89-69.16-74.89h-65.36c-4.22,0-6.75-2.32-6.75-7.44v-42.8C2345.73,109.77,2347.83,108.37,2352.48,108.37Z"/><path class="cls-1" d="M245.73,167.45H143.25c-4.64,0-8.44,4.19-8.44,9.3V227c0,5.12,3.8,9.3,8.44,9.3h41.33v50.24c0,5.58-3,8.84-7.59,8.84H95.6c-5.06,0-8-4.19-8-9.3V115.82c0-3.26,3.8-7.45,8.44-7.45H199.34c4.64,0,8.43-4.18,8.43-9.3V48.36c0-5.11-3.79-9.3-8.43-9.3H91.8c-38.37,0-73.8,32.1-73.8,73.5V291.65c0,42.8,34.58,73,73.8,73h90.25c39.22,0,72.11-34.42,72.11-73V176.75C254.16,171.64,250.37,167.45,245.73,167.45Z"/><path class="cls-1" d="M956.27,39.06H867.71c-36.69,0-73.8,26.05-73.8,73V355.38c0,5.12,3.79,9.3,8.43,9.3h53.14c4.64,0,8.43-4.18,8.43-9.3V236.29h96.15V355.38c0,5.12,3.8,9.3,8.44,9.3h53.14c4.63,0,8.43-4.18,8.43-9.3V112.09C1030.07,70.23,995.91,39.06,956.27,39.06Zm3.79,128.39H863.91V119.54c0-5.59,3.37-11.17,9.7-11.17h75.91c7.17,0,10.54,4.19,10.54,11.17Z"/><path class="cls-2" d="M1378,39.06h-52.71c-4.64,0-8.44,4.19-8.44,9.3v307c0,5.12,3.8,9.3,8.44,9.3H1378c4.64,0,8.44-4.18,8.44-9.3V200c0-12.56,2.1-20.93,13.07-29.77l76.32-59.54c2.12-1.4,3.38-2.33,4.65-2.33,1.68,0,3,1.86,3,5.12V355.38c0,5.12,3.79,9.3,8.43,9.3h52.71c4.64,0,8.44-4.18,8.44-9.3V200c0-12.56,3-21.86,13.07-29.77l76.76-59.54c2.1-1.4,3.37-2.33,4.63-2.33,1.69,0,2.54,1.86,2.54,5.12V355.38c0,5.12,3.79,9.3,8.43,9.3h52.71c4.64,0,8.44-4.18,8.44-9.3V74c0-19.54-14.34-34.89-31.63-34.89h-49.34c-10.55,0-14.34,1.86-23.2,8.37l-62.83,47.92L1553,74c.42-18.15-13.07-34.89-32-34.89H1472c-10.54,0-14.76,1.86-23.19,8.37l-62.41,47.92v-47C1386.39,43.25,1382.59,39.06,1378,39.06Z"/><path class="cls-1" d="M1278.86,39.06H1068c-4.64,0-8.44,4.19-8.44,9.3V99.07c0,5.12,3.8,9.3,8.44,9.3h70.43v247c0,5.12,3.79,9.3,8.43,9.3H1200c4.64,0,8.44-4.18,8.44-9.3v-247h70.42c4.64,0,8.44-4.18,8.44-9.3V48.36C1287.3,43.25,1283.5,39.06,1278.86,39.06Z"/></svg>